<?xml version="1.0" encoding="UTF-8" standalone="no"?>
<!-- Created with Inkscape (http://www.inkscape.org/) -->

<svg
   xmlns:dc="http://purl.org/dc/elements/1.1/"
   xmlns:cc="http://creativecommons.org/ns#"
   xmlns:rdf="http://www.w3.org/1999/02/22-rdf-syntax-ns#"
   xmlns:svg="http://www.w3.org/2000/svg"
   xmlns="http://www.w3.org/2000/svg"
   xmlns:sodipodi="http://sodipodi.sourceforge.net/DTD/sodipodi-0.dtd"
   xmlns:inkscape="http://www.inkscape.org/namespaces/inkscape"
   width="64"
   height="64"
   id="svg3360"
   version="1.1"
   inkscape:version="0.91 r"
   viewBox="0 0 64 64"
   sodipodi:docname="gear28.svg">
  <sodipodi:namedview
     id="base"
     pagecolor="#ffffff"
     bordercolor="#666666"
     borderopacity="1.0"
     inkscape:pageopacity="0.0"
     inkscape:pageshadow="2"
     inkscape:zoom="5.5"
     inkscape:cx="32"
     inkscape:cy="24.727273"
     inkscape:current-layer="layer1"
     showgrid="true"
     inkscape:document-units="px"
     inkscape:grid-bbox="true"
     inkscape:window-width="1329"
     inkscape:window-height="744"
     inkscape:window-x="37"
     inkscape:window-y="24"
     inkscape:window-maximized="1" />
  <defs
     id="defs3362" />
  <metadata
     id="metadata3365">
    <rdf:RDF>
      <cc:Work
         rdf:about="">
        <dc:format>image/svg+xml</dc:format>
        <dc:type
           rdf:resource="http://purl.org/dc/dcmitype/StillImage" />
        <dc:title></dc:title>
      </cc:Work>
    </rdf:RDF>
  </metadata>
  <g
     inkscape:groupmode="layer"
     inkscape:label="Layer 1"
     id="layer1">
    <g
       id="g3373"
       inkscape:label="Gear28"
       transform="matrix(0.32563266,0,0,0.32599084,32,32)">
      <path
         id="path3375"
         style="fill:none;stroke:#000000;stroke-width:3.0692575"
         d="m 82.55204,-5.87142 0.98869,-0.07032 5.44583,0.94436 6.47806,2.67069 0,4.65338 -6.47806,2.67069 -5.44583,0.94436 -0.98869,-0.07032 -0.76324,6.77393 0.97955,0.15145 5.09915,2.13249 5.72136,4.04523 -1.03548,4.53671 -6.90992,1.16222 -5.51943,-0.29112 -0.94826,-0.28857 -2.25144,6.43426 0.92129,0.36563 4.49678,3.21369 4.67776,5.21693 -2.01903,4.19255 -6.9953,-0.40452 -5.31625,-1.51202 -0.86028,-0.49233 -3.62675,5.77194 0.81684,0.56147 3.66891,4.13374 3.39961,6.12703 -2.90134,3.63817 -6.72989,-1.95098 -4.84652,-2.65709 -0.72915,-0.67142 -4.8202,4.8202 0.67142,0.72915 2.65709,4.84652 1.95098,6.72989 -3.63817,2.90134 -6.12703,-3.39961 -4.13374,-3.66891 -0.56147,-0.81684 -5.77194,3.62675 0.49233,0.86028 1.51202,5.31625 0.40452,6.9953 -4.19255,2.01903 -5.21693,-4.67776 -3.21369,-4.49678 -0.36563,-0.92129 -6.43426,2.25144 0.28857,0.94826 0.29112,5.51943 -1.16222,6.90992 -4.53671,1.03548 -4.04523,-5.72136 -2.13249,-5.09915 -0.15145,-0.97955 -6.77393,0.76324 0.07032,0.98869 -0.94436,5.44583 -2.67069,6.47806 -4.65338,0 -2.67069,-6.47806 -0.94436,-5.44583 0.07032,-0.98869 -6.77393,-0.76324 -0.15145,0.97955 -2.13249,5.09915 -4.04523,5.72136 -4.53671,-1.03548 -1.16222,-6.90992 0.29112,-5.51943 0.28857,-0.94826 -6.43426,-2.25144 -0.36563,0.92129 -3.21369,4.49678 -5.21693,4.67776 -4.19255,-2.01903 0.40452,-6.9953 1.51202,-5.31625 0.49233,-0.86028 -5.77194,-3.62675 -0.56147,0.81684 -4.13374,3.66891 -6.12703,3.39961 -3.63817,-2.90134 1.95098,-6.72989 2.65709,-4.84652 0.67142,-0.72915 -4.8202,-4.8202 -0.72915,0.67142 -4.84652,2.65709 -6.72989,1.95098 -2.90134,-3.63817 3.39961,-6.12703 3.66891,-4.13374 0.81684,-0.56147 -3.62675,-5.77194 -0.86028,0.49233 -5.31625,1.51202 -6.9953,0.40452 -2.01903,-4.19255 4.67776,-5.21693 4.49678,-3.21369 0.92129,-0.36563 -2.25144,-6.43426 -0.94826,0.28857 -5.51943,0.29112 -6.90992,-1.16222 -1.03548,-4.53671 5.72136,-4.04523 5.09915,-2.13249 0.97955,-0.15145 -0.76324,-6.77393 -0.98869,0.07032 -5.44583,-0.94436 -6.47806,-2.67069 0,-4.65338 6.47806,-2.67069 5.44583,-0.94436 0.98869,0.07032 0.76324,-6.77393 -0.97955,-0.15145 -5.09915,-2.13249 -5.72136,-4.04523 1.03548,-4.53671 6.90992,-1.16222 5.51943,0.29112 0.94826,0.28857 2.25144,-6.43426 -0.92129,-0.36563 -4.49678,-3.21369 -4.67776,-5.21693 2.01903,-4.19255 6.9953,0.40452 5.31625,1.51202 0.86028,0.49233 3.62675,-5.77194 -0.81684,-0.56147 -3.66891,-4.13374 -3.39961,-6.12703 2.90134,-3.63817 6.72989,1.95098 4.84652,2.65709 0.72915,0.67142 4.8202,-4.8202 -0.67142,-0.72915 -2.65709,-4.84652 -1.95098,-6.72989 3.63817,-2.90134 6.12703,3.39961 4.13374,3.66891 0.56147,0.81684 5.77194,-3.62675 -0.49233,-0.86028 -1.51202,-5.31625 -0.40452,-6.9953 4.19255,-2.01903 5.21693,4.67776 3.21369,4.49678 0.36563,0.92129 6.43426,-2.25144 -0.28857,-0.94826 -0.29112,-5.51943 1.16222,-6.90992 4.53671,-1.03548 4.04523,5.72136 2.13249,5.09915 0.15145,0.97955 6.77393,-0.76324 -0.07032,-0.98869 0.94436,-5.44583 2.67069,-6.47806 4.65338,0 2.67069,6.47806 0.94436,5.44583 -0.07032,0.98869 6.77393,0.76324 0.15145,-0.97955 2.13249,-5.09915 4.04523,-5.72136 4.53671,1.03548 1.16222,6.90992 -0.29112,5.51943 -0.28857,0.94826 6.43426,2.25144 0.36563,-0.92129 3.21369,-4.49678 5.21693,-4.67776 4.19255,2.01903 -0.40452,6.9953 -1.51202,5.31625 -0.49233,0.86028 5.77194,3.62675 0.56147,-0.81684 4.13374,-3.66891 6.12703,-3.39961 3.63817,2.90134 -1.95098,6.72989 -2.65709,4.84652 -0.67142,0.72915 4.8202,4.8202 0.72915,-0.67142 4.84652,-2.65709 6.72989,-1.95098 2.90134,3.63817 -3.39961,6.12703 -3.66891,4.13374 -0.81684,0.56147 3.62675,5.77194 0.86028,-0.49233 5.31625,-1.51202 6.9953,-0.40452 2.01903,4.19255 -4.67776,5.21693 -4.49678,3.21369 -0.92129,0.36563 2.25144,6.43426 0.94826,-0.28857 5.51943,-0.29112 6.90992,1.16222 1.03548,4.53671 -5.72136,4.04523 -5.09915,2.13249 -0.97955,0.15145 z"
         inkscape:connector-curvature="0" />
      <circle
         id="path3377"
         style="fill:none;stroke:#000000;stroke-width:3.0692575"
         cx="0"
         cy="0"
         r="10" />
    </g>
  </g>
</svg>
